# xmcd
#
# Track frame offsets:
#	150
#	9907
#	22385
#	42817
#	59525
#	75860
#	96225
#	125997
#	137360
#	151307
#	166202
#	188985
#
# Disc length: 2641 seconds
#
# Revision: 0
# Processed by: cddbd v1.5.1PL0 Copyright (c) Steve Scherf et al.
# Submitted via: dBpowerAMP V4.0
#
DISCID=950a4f0c
DTITLE=Little Miss Messy - Boring Stories For Naughty Children
DYEAR=1900
DGENRE=Alternative
TTITLE0=Wrong
TTITLE1=No More
TTITLE2=Twinkie
TTITLE3=Where Is My Mind?
TTITLE4=Sweet Stacy
TTITLE5=Former Occupant
TTITLE6=She Doesn't Cry
TTITLE7=Faking It
TTITLE8=Stop
TTITLE9=Boy Wonder
TTITLE10=Mayfly
TTITLE11=Just Another Boy
EXTD=Album released in 2003 on Dalloway Records - produced by Mitch Easter
EXTT0=
EXTT1=
EXTT2=
EXTT3=
EXTT4=
EXTT5=
EXTT6=
EXTT7=
EXTT8=
EXTT9=
EXTT10=
EXTT11=
PLAYORDER=
